<svg xmlns="http://www.w3.org/2000/svg" width="58" height="68" viewBox="0 0 58 68" fill="none">
  <path d="M40.3846 9.84171L40.8697 12.5943H23.8205C17.0114 12.5943 13.0515 16.5784 13.0515 23.46V54.7957C10.8704 53.9857 9.48891 52.0082 8.92255 48.8856L3.22412 16.3852C2.33072 11.387 4.35897 8.48953 9.26057 7.62029L31.6922 3.66038C36.5937 2.81527 39.4913 4.86767 40.3846 9.84171Z" fill="#70D6FF"/>
  <path d="M54.0755 23.4607C54.0755 18.4142 51.5884 15.8789 46.6144 15.8789H23.8208C18.8467 15.8789 16.3356 18.4142 16.3356 23.4607V56.4439C16.3356 61.4904 18.8467 64.0257 23.8208 64.0257H46.6144C51.5644 64.0257 54.0755 61.4904 54.0755 56.4439V23.4607Z" fill="#70D6FF"/>
</svg> 